<?xml version="1.0" encoding="UTF-8"?>
<svg width="352px" height="102px" viewBox="0 0 352 102" version="1.1" xmlns="http://www.w3.org/2000/svg" xmlns:xlink="http://www.w3.org/1999/xlink">
    <!-- Generator: Sketch 60.1 (88133) - https://sketch.com -->
    <title>Group 3@2x</title>
    <desc>Created with Sketch.</desc>
    <g id="Page-2" stroke="none" stroke-width="1" fill="none" fill-rule="evenodd">
        <g id="Artboard-Copy-10" transform="translate(-72.000000, -70.000000)">
            <g id="Group-3" transform="translate(72.000000, 70.000000)">
                <g id="Group-Copy-8">
                    <path d="M0,0 L129.5,0 C156.28581,-4.92047354e-15 178,21.7141896 178,48.5 L178,102 L178,102 L48.5,102 C21.7141896,102 3.28031569e-15,80.2858104 0,53.5 L0,0 L0,0 Z" id="Rectangle-Copy" fill="#3D5AFE"></path>
                    <text id="WCG" font-family="Inter-Black, Inter" font-size="42" font-weight="700" line-spacing="53" letter-spacing="-3" fill="#FFFFFF">
                        <tspan x="36" y="65">WCG</tspan>
                    </text>
                </g>
                <path d="M210.232947,31 L214.955954,13.7287097 L215.085215,13.7287097 L219.808222,31 L221.796856,31 L227.374976,10.6363831 L225.47583,10.6363831 L220.862198,28.1463095 L220.703107,28.1463095 L216.089475,10.6363831 L213.94175,10.6363831 L209.328118,28.1463095 L209.169027,28.1463095 L204.555395,10.6363831 L202.666193,10.6363831 L208.244312,31 L210.232947,31 Z M234.731842,31.3181815 C237.794339,31.3181815 239.852575,29.6576717 240.548597,27.7386395 L238.868201,27.191765 C238.281554,28.5639228 236.899453,29.6974444 234.731842,29.6974444 C231.609686,29.6974444 229.630994,27.420458 229.551449,23.8906318 L240.926438,23.8906318 L240.926438,23.0156326 C240.926438,17.9147852 237.774452,15.5184807 234.463376,15.5184807 C230.505993,15.5184807 227.771621,18.8295571 227.771621,23.4531322 C227.771621,28.0866505 230.456278,31.3181815 234.731842,31.3181815 Z M239.116781,22.3295537 L229.561392,22.3295537 C229.750312,19.4858064 231.669345,17.1292746 234.463376,17.1292746 C237.197748,17.1292746 239.116781,19.3863747 239.116781,22.3295537 Z M251.425338,31.3181815 C255.173914,31.3181815 257.709423,28.1463095 257.709423,23.4034163 C257.709423,18.7002958 255.163971,15.5184807 251.395509,15.5184807 C248.601477,15.5184807 247.338694,17.268479 246.732161,18.6406368 L246.57307,18.6406368 L246.57307,10.6363831 L244.793242,10.6363831 L244.793242,31 L246.513411,31 L246.513411,28.1661959 L246.732161,28.1661959 C247.348638,29.5681832 248.64125,31.3181815 251.425338,31.3181815 Z M251.206589,29.6974444 C248.243523,29.6974444 246.543241,27.0625038 246.543241,23.3735868 C246.543241,19.7144994 248.223637,17.1292746 251.206589,17.1292746 C254.269086,17.1292746 255.929595,19.8537038 255.929595,23.3735868 C255.929595,26.9332425 254.249199,29.6974444 251.206589,29.6974444 Z M212.589479,61.2784088 C216.924702,61.2784088 219.987199,58.3750025 220.653391,54.6363697 L218.784075,54.6363697 C218.217314,57.4304011 215.781237,59.5284105 212.589479,59.5284105 C208.731528,59.5284105 205.589485,56.4758566 205.589485,50.8181915 C205.589485,45.1804128 208.731528,42.1079726 212.589479,42.1079726 C215.781237,42.1079726 218.217314,44.2159251 218.784075,47.0000134 L220.653391,47.0000134 C219.987199,43.2514374 216.924702,40.3579742 212.589479,40.3579742 C207.448858,40.3579742 203.789771,44.4446181 203.789771,50.8181915 C203.789771,57.191765 207.448858,61.2784088 212.589479,61.2784088 Z M230.207694,61.3181815 C234.165077,61.3181815 236.929279,58.0866505 236.929279,53.4332459 C236.929279,48.7500117 234.165077,45.5184807 230.207694,45.5184807 C226.250312,45.5184807 223.48611,48.7500117 223.48611,53.4332459 C223.48611,58.0866505 226.250312,61.3181815 230.207694,61.3181815 Z M230.207694,59.6974444 C227.035822,59.6974444 225.265937,56.8536971 225.265937,53.4332459 C225.265937,50.0127946 227.035822,47.1292746 230.207694,47.1292746 C233.379566,47.1292746 235.149451,50.0127946 235.149451,53.4332459 C235.149451,56.8536971 233.379566,59.6974444 230.207694,59.6974444 Z M242.198071,61 L242.198071,51.2159184 C242.198071,48.8395002 243.779035,47.1491609 245.896931,47.1491609 C247.984997,47.1491609 249.198064,48.5412051 249.198064,50.6093849 L249.198064,61 L251.007721,61 L251.007721,50.9474528 C251.007721,48.7500117 252.32022,47.1491609 254.646922,47.1491609 C256.665386,47.1491609 258.007715,48.362228 258.007715,50.7684757 L258.007715,61 L259.777599,61 L259.777599,50.7684757 C259.777599,47.3480244 258.017658,45.5284238 255.183854,45.5284238 C252.956583,45.5284238 251.345789,46.6122296 250.65971,48.3025689 L250.530449,48.3025689 C249.854313,46.5724569 248.511985,45.5284238 246.404032,45.5284238 C244.405455,45.5284238 242.913979,46.4929116 242.307445,48.073876 L242.148355,48.073876 L242.148355,45.7272873 L240.428186,45.7272873 L240.428186,61 L242.198071,61 Z M265.812023,66.7272673 L265.812023,58.1661959 L265.971113,58.1661959 C266.577647,59.5681832 267.890146,61.3181815 270.664291,61.3181815 C274.402924,61.3181815 276.948376,58.1363664 276.948376,53.4034163 C276.948376,48.6903526 274.412867,45.5184807 270.634461,45.5184807 C267.830487,45.5184807 266.58759,47.268479 265.971113,48.6406368 L265.752364,48.6406368 L265.752364,45.7272873 L264.032195,45.7272873 L264.032195,66.7272673 L265.812023,66.7272673 Z M270.445541,59.6974444 C267.492419,59.6974444 265.782193,57.0625038 265.782193,53.3735868 C265.782193,49.7144994 267.462589,47.1292746 270.445541,47.1292746 C273.517981,47.1292746 275.168548,49.8537038 275.168548,53.3735868 C275.168548,56.9332425 273.488152,59.6974444 270.445541,59.6974444 Z M282.217168,61 L282.217168,40.6363831 L280.447283,40.6363831 L280.447283,61 L282.217168,61 Z M287.426291,43.1022898 C288.152143,43.1022898 288.758676,42.5255858 288.758676,41.8295637 C288.758676,41.1335417 288.152143,40.5568377 287.426291,40.5568377 C286.70044,40.5568377 286.103849,41.1335417 286.103849,41.8295637 C286.103849,42.5255858 286.70044,43.1022898 287.426291,43.1022898 Z M288.30129,61 L288.30129,45.7272873 L286.521462,45.7272873 L286.521462,61 L288.30129,61 Z M296.871206,61.348011 C299.416658,61.348011 300.967793,59.9360806 301.604156,58.5838091 L301.713531,58.5838091 L301.713531,61 L303.483415,61 L303.483415,50.6292713 C303.483415,46.5326843 300.401032,45.5184807 298.064387,45.5184807 C295.727741,45.5184807 293.321493,46.4431957 292.287403,48.938932 L293.9678,49.5454655 C294.524617,48.2329667 295.906718,47.1093882 298.114102,47.1093882 C300.430862,47.1093882 301.713531,48.3821143 301.713531,50.4701805 L301.713531,50.8281347 C301.713531,51.9815427 300.281714,52.001429 297.716375,52.3196106 C294.266095,52.747167 291.849904,53.7116547 291.849904,56.7343791 C291.849904,59.6775581 294.097061,61.348011 296.871206,61.348011 Z M297.109842,59.7272739 C295.111264,59.7272739 293.619788,58.6633545 293.619788,56.8139244 C293.619788,54.9644944 295.131151,54.188927 297.716375,53.8707454 C298.969215,53.7215979 301.196486,53.443189 301.713531,52.9360872 L301.713531,55.1434715 C301.713531,57.6491509 299.933703,59.7272739 297.109842,59.7272739 Z M309.567547,61 L309.567547,51.4545546 C309.567547,48.7897844 311.317545,47.1491609 313.723793,47.1491609 C316.070381,47.1491609 317.581743,48.7201822 317.581743,51.2159184 L317.581743,61 L319.351628,61 L319.351628,51.1065435 C319.351628,47.4872288 317.253619,45.5284238 314.171235,45.5284238 C311.934022,45.5284238 310.39283,46.5625138 309.676921,48.1235918 L309.517831,48.1235918 L309.517831,45.7272873 L307.797662,45.7272873 L307.797662,61 L309.567547,61 Z M329.601949,61.3181815 C332.783764,61.3181815 335.020978,59.3096607 335.428648,56.5454588 L333.638877,56.5454588 C333.231207,58.4943206 331.630356,59.6974444 329.601949,59.6974444 C326.609054,59.6974444 324.630363,57.0923333 324.630363,53.3735868 C324.630363,49.6747267 326.668713,47.1292746 329.601949,47.1292746 C331.779504,47.1292746 333.251093,48.5312619 333.628934,50.2613739 L335.418705,50.2613739 C335.001092,47.4275698 332.634617,45.5184807 329.57212,45.5184807 C325.574964,45.5184807 322.850535,48.8395002 322.850535,53.4332459 C322.850535,57.9872188 325.495419,61.3181815 329.601949,61.3181815 Z M345.002833,61.3181815 C348.06533,61.3181815 350.123567,59.6576717 350.819589,57.7386395 L349.139192,57.191765 C348.552545,58.5639228 347.170444,59.6974444 345.002833,59.6974444 C341.880677,59.6974444 339.901985,57.420458 339.82244,53.8906318 L351.197429,53.8906318 L351.197429,53.0156326 C351.197429,47.9147852 348.045444,45.5184807 344.734367,45.5184807 C340.776985,45.5184807 338.042612,48.8295571 338.042612,53.4531322 C338.042612,58.0866505 340.727269,61.3181815 345.002833,61.3181815 Z M349.387772,52.3295537 L339.832383,52.3295537 C340.021303,49.4858064 341.940336,47.1292746 344.734367,47.1292746 C347.46874,47.1292746 349.387772,49.3863747 349.387772,52.3295537 Z M212.669024,91.2784088 C217.431803,91.2784088 220.842312,88.0269915 220.842312,82.806826 L220.842312,81.136373 L213.106523,81.136373 L213.106523,82.806826 L219.032654,82.806826 C218.982938,86.9730152 216.367884,89.5284105 212.669024,89.5284105 C208.552551,89.5284105 205.589485,86.2869363 205.589485,80.8181915 C205.589485,75.3295604 208.572437,72.1079726 212.539763,72.1079726 C215.900555,72.1079726 218.058223,74.2954705 218.794018,77.0000134 L220.703107,77.0000134 C220.046858,73.4105281 216.994304,70.3579742 212.539763,70.3579742 C207.379256,70.3579742 203.789771,74.4346749 203.789771,80.8181915 C203.789771,87.191765 207.339484,91.2784088 212.669024,91.2784088 Z M226.479005,91 L226.479005,81.136373 C226.479005,78.8693298 228.21906,77.2287063 230.605421,77.2287063 C231.072751,77.2287063 231.51025,77.3082517 231.669341,77.328138 L231.669341,75.5284238 C231.430705,75.5184807 231.023035,75.4985943 230.734683,75.4985943 C228.81565,75.4985943 227.175027,76.5326843 226.55855,78.073876 L226.429289,78.073876 L226.429289,75.7272873 L224.70912,75.7272873 L224.70912,91 L226.479005,91 Z M239.761987,91.3181815 C243.71937,91.3181815 246.483572,88.0866505 246.483572,83.4332459 C246.483572,78.7500117 243.71937,75.5184807 239.761987,75.5184807 C235.804604,75.5184807 233.040403,78.7500117 233.040403,83.4332459 C233.040403,88.0866505 235.804604,91.3181815 239.761987,91.3181815 Z M239.761987,89.6974444 C236.590115,89.6974444 234.82023,86.8536971 234.82023,83.4332459 C234.82023,80.0127946 236.590115,77.1292746 239.761987,77.1292746 C242.933859,77.1292746 244.703744,80.0127946 244.703744,83.4332459 C244.703744,86.8536971 242.933859,89.6974444 239.761987,89.6974444 Z M255.003781,91.1988634 C257.240995,91.1988634 258.831902,90.0355123 259.547811,88.4644911 L259.687015,88.4644911 L259.687015,91 L261.4569,91 L261.4569,75.7272873 L259.687015,75.7272873 L259.687015,85.1633578 C259.687015,87.9673324 257.579062,89.4786946 255.510883,89.4786946 C253.303498,89.4786946 251.752364,87.8977302 251.752364,85.5113689 L251.752364,75.7272873 L249.982479,75.7272873 L249.982479,85.6207438 C249.982479,89.2400585 252.070545,91.1988634 255.003781,91.1988634 Z M267.491316,96.7272673 L267.491316,88.1661959 L267.650406,88.1661959 C268.25694,89.5681832 269.569439,91.3181815 272.343584,91.3181815 C276.082216,91.3181815 278.627669,88.1363664 278.627669,83.4034163 C278.627669,78.6903526 276.09216,75.5184807 272.313754,75.5184807 C269.50978,75.5184807 268.266883,77.268479 267.650406,78.6406368 L267.431657,78.6406368 L267.431657,75.7272873 L265.711488,75.7272873 L265.711488,96.7272673 L267.491316,96.7272673 Z M272.124834,89.6974444 C269.171712,89.6974444 267.461486,87.0625038 267.461486,83.3735868 C267.461486,79.7144994 269.141882,77.1292746 272.124834,77.1292746 C275.197274,77.1292746 276.847841,79.8537038 276.847841,83.3735868 C276.847841,86.9332425 275.167445,89.6974444 272.124834,89.6974444 Z M287.933388,77.9545579 L287.933388,72.6449039 L290.240204,77.9545579 L290.916339,77.9545579 L293.233099,72.6250175 L293.233099,77.9545579 L294.297018,77.9545579 L294.297018,70.6363831 L292.994463,70.6363831 L290.578272,76.3735935 L288.172024,70.6363831 L286.869468,70.6363831 L286.869468,77.9545579 L287.933388,77.9545579 Z M283.24021,77.9545579 L283.24021,71.5909276 L285.467481,71.5909276 L285.467481,70.6363831 L279.94902,70.6363831 L279.94902,71.5909276 L282.176291,71.5909276 L282.176291,77.9545579 L283.24021,77.9545579 Z" id="WebComplianceGroup™" fill="#1C252A" fill-rule="nonzero"></path>
            </g>
        </g>
    </g>
</svg>